<?xml version="1.0" encoding="UTF-8" standalone="no"?>
<svg
   width="741.93994"
   height="337"
   version="1.1"
   id="svg453"
   xmlns:xlink="http://www.w3.org/1999/xlink"
   xmlns="http://www.w3.org/2000/svg"
   xmlns:svg="http://www.w3.org/2000/svg"
   xmlns:lucid="lucid">
  <defs
     id="defs457" />
  <g
     lucid:page-tab-id="0_0"
     id="g451"
     transform="translate(-479.03,-299.5)">
    <path
       d="m 520,305 a 5,5 0 0 1 5,-5 h 270 a 5,5 0 0 1 5,5 v 94 a 5,5 0 0 1 -5,5 H 525 a 5,5 0 0 1 -5,-5 z"
       fill="#ffffff"
       id="path24" />
    <path
       d="m 520,340 v -35 a 5,5 0 0 1 5,-5 h 270 a 5,5 0 0 1 5,5 v 35"
       fill="#ced4db"
       id="path26" />
    <path
       d="m 520,305 a 5,5 0 0 1 5,-5 h 270 a 5,5 0 0 1 5,5 v 94 a 5,5 0 0 1 -5,5 H 525 a 5,5 0 0 1 -5,-5 z m 0,35 h 280 m -140,0 v 64"
       stroke="#282c33"
       fill="none"
       id="path28" />
    <use
       xlink:href="#i"
       transform="translate(530,323.6)"
       id="use30" />
    <use
       xlink:href="#j"
       transform="translate(525,359.6)"
       id="use32" />
    <use
       xlink:href="#k"
       transform="translate(545,359.6)"
       id="use34" />
    <use
       xlink:href="#l"
       transform="translate(665,359.6)"
       id="use36" />
    <use
       xlink:href="#m"
       transform="translate(525,391.6)"
       id="use38" />
    <use
       xlink:href="#l"
       transform="translate(665,391.6)"
       id="use40" />
    <path
       d="m 900,305 a 5,5 0 0 1 5,-5 h 270 a 5,5 0 0 1 5,5 v 94 a 5,5 0 0 1 -5,5 H 905 a 5,5 0 0 1 -5,-5 z"
       fill="#ffffff"
       id="path42" />
    <path
       d="m 900,340 v -35 a 5,5 0 0 1 5,-5 h 270 a 5,5 0 0 1 5,5 v 35"
       fill="#ced4db"
       id="path44" />
    <path
       d="m 900,305 a 5,5 0 0 1 5,-5 h 270 a 5,5 0 0 1 5,5 v 94 a 5,5 0 0 1 -5,5 H 905 a 5,5 0 0 1 -5,-5 z m 0,35 h 280 m -140,0 v 64"
       stroke="#282c33"
       fill="none"
       id="path46" />
    <use
       xlink:href="#n"
       transform="translate(910,323.6)"
       id="use48" />
    <use
       xlink:href="#j"
       transform="translate(905,359.6)"
       id="use50" />
    <use
       xlink:href="#k"
       transform="translate(925,359.6)"
       id="use52" />
    <use
       xlink:href="#l"
       transform="translate(1045,359.6)"
       id="use54" />
    <use
       xlink:href="#o"
       transform="translate(905,391.6)"
       id="use56" />
    <use
       xlink:href="#l"
       transform="translate(1045,391.6)"
       id="use58" />
    <path
       d="m 520,505 a 5,5 0 0 1 5,-5 h 270 a 5,5 0 0 1 5,5 v 126 a 5,5 0 0 1 -5,5 H 525 a 5,5 0 0 1 -5,-5 z"
       fill="#ffffff"
       id="path60" />
    <path
       d="m 520,540 v -35 a 5,5 0 0 1 5,-5 h 270 a 5,5 0 0 1 5,5 v 35"
       fill="#ced4db"
       id="path62" />
    <path
       d="m 520,505 a 5,5 0 0 1 5,-5 h 270 a 5,5 0 0 1 5,5 v 126 a 5,5 0 0 1 -5,5 H 525 a 5,5 0 0 1 -5,-5 z m 0,35 h 280 m -140,0 v 96"
       stroke="#282c33"
       fill="none"
       id="path64" />
    <use
       xlink:href="#p"
       transform="translate(530,523.6)"
       id="use66" />
    <use
       xlink:href="#j"
       transform="translate(525,559.6)"
       id="use68" />
    <use
       xlink:href="#k"
       transform="translate(545,559.6)"
       id="use70" />
    <use
       xlink:href="#l"
       transform="translate(665,559.6)"
       id="use72" />
    <use
       xlink:href="#q"
       transform="translate(525,591.6)"
       id="use74" />
    <use
       xlink:href="#r"
       transform="translate(609.25,591.6)"
       id="use76" />
    <use
       xlink:href="#l"
       transform="translate(665,591.6)"
       id="use78" />
    <use
       xlink:href="#o"
       transform="translate(525,623.6)"
       id="use80" />
    <use
       xlink:href="#l"
       transform="translate(665,623.6)"
       id="use82" />
    <path
       d="m 900,505 a 5,5 0 0 1 5,-5 h 270 a 5,5 0 0 1 5,5 v 94 a 5,5 0 0 1 -5,5 H 905 a 5,5 0 0 1 -5,-5 z"
       fill="#ffffff"
       id="path84" />
    <path
       d="m 900,540 v -35 a 5,5 0 0 1 5,-5 h 270 a 5,5 0 0 1 5,5 v 35"
       fill="#ced4db"
       id="path86" />
    <path
       d="m 900,505 a 5,5 0 0 1 5,-5 h 270 a 5,5 0 0 1 5,5 v 94 a 5,5 0 0 1 -5,5 H 905 a 5,5 0 0 1 -5,-5 z m 0,35 h 280 m -140,0 v 64"
       stroke="#282c33"
       fill="none"
       id="path88" />
    <use
       xlink:href="#s"
       transform="translate(910,523.6)"
       id="use90" />
    <use
       xlink:href="#t"
       transform="translate(986,523.6)"
       id="use92" />
    <use
       xlink:href="#u"
       transform="translate(905,559.6)"
       id="use94" />
    <use
       xlink:href="#k"
       transform="translate(987,559.6)"
       id="use96" />
    <use
       xlink:href="#l"
       transform="translate(1045,559.6)"
       id="use98" />
    <use
       xlink:href="#v"
       transform="translate(905,591.6)"
       id="use100" />
    <use
       xlink:href="#k"
       transform="translate(969.9,591.6)"
       id="use102" />
    <use
       xlink:href="#l"
       transform="translate(1045,591.6)"
       id="use104" />
    <path
       d="m 499.53,356 h -8 a 12,12 0 0 0 -12,12 v 208 a 12,12 0 0 0 12,12 h 8.6"
       stroke="#3a414a"
       fill="none"
       id="path106" />
    <path
       d="m 499.53,346 v 20 m 20,-10 h -20"
       stroke="#3a414a"
       fill="#ffffff"
       id="path108" />
    <path
       d="m 519.32,598 -20,-10 20,-10"
       stroke="#3a414a"
       fill="#ffffff"
       fill-opacity="0"
       id="path110" />
    <path
       d="m 519.32,588 h -20"
       stroke="#3a414a"
       fill="#ffffff"
       id="path112" />
    <path
       d="M 820.46,556 H 838 a 12,12 0 0 1 12,12 v 8 a 12,12 0 0 0 12,12 h 17.55"
       stroke="#3a414a"
       fill="none"
       id="path114" />
    <path
       d="m 800.7,546 20,10 -20,10"
       stroke="#3a414a"
       fill="#ffffff"
       fill-opacity="0"
       id="path116" />
    <path
       d="m 800.7,556 h 20 m 0,10 v -20 m 58.85,32 v 20 m 20,-10 h -20"
       stroke="#3a414a"
       fill="#ffffff"
       id="path118" />
    <path
       d="m 1200.47,356 h 8 a 12,12 0 0 1 12,12 v 176 a 12,12 0 0 1 -12,12 h -8"
       stroke="#3a414a"
       fill="none"
       id="path120" />
    <path
       d="m 1180.7,346 20,10 -20,10"
       stroke="#3a414a"
       fill="#ffffff"
       fill-opacity="0"
       id="path122" />
    <path
       d="m 1180.7,356 h 20 m 0,10 v -20 m -0.23,220 v -20 m -20,10 h 20"
       stroke="#3a414a"
       fill="#ffffff"
       id="path124" />
    <defs
       id="defs449">
      <path
         fill="#333333"
         d="M 151,-220 108,0 H 75 l 42,-220 H 32 l 6,-28 h 203 l -5,28 h -85"
         id="Z" />
      <path
         fill="#333333"
         d="m 111,-194 c 62,-3 86,47 72,106 H 45 c -7,38 6,69 45,68 27,-1 43,-14 53,-32 l 24,11 C 152,-15 129,4 87,4 38,3 12,-23 12,-71 c 0,-70 32,-119 99,-123 z m 44,81 c 14,-66 -71,-72 -95,-28 -4,8 -8,17 -11,28 h 106"
         id="aa" />
      <path
         fill="#333333"
         d="m 165,-48 c -4,18 1,34 23,27 l -3,20 c -29,8 -62,0 -52,-35 h -2 C 116,-14 99,4 63,4 30,4 8,-16 8,-49 c 0,-68 71,-67 138,-67 10,-26 0,-56 -31,-54 -26,1 -42,9 -47,31 l -32,-5 c 8,-67 160,-71 144,15 -5,28 -9,54 -15,81 z M 42,-50 c 3,52 80,24 89,-6 7,-12 7,-24 11,-38 -47,1 -103,-4 -100,44"
         id="ab" />
      <path
         fill="#333333"
         d="m 44,-68 c 0,29 11,47 38,47 30,0 42,-19 51,-41 l 28,9 C 148,-21 126,4 82,4 31,4 10,-29 12,-85 c 3,-77 74,-140 146,-93 12,8 15,23 18,40 l -31,5 c -1,-22 -13,-36 -36,-36 -52,0 -65,49 -65,101"
         id="ac" />
      <path
         fill="#333333"
         d="m 67,-158 c 15,-20 31,-36 64,-36 94,0 33,127 27,194 h -32 l 25,-140 c 3,-38 -53,-32 -70,-12 C 52,-117 51,-51 37,0 H 6 l 51,-261 h 31"
         id="ad" />
      <path
         fill="#333333"
         d="m 66,-151 c 12,-25 30,-51 66,-40 l -6,26 C 45,-176 58,-65 38,0 H 6 l 36,-190 h 30"
         id="ae" />
      <path
         fill="#333333"
         d="m 55,-144 c 13,50 104,24 104,88 0,77 -144,79 -158,17 l 26,-10 c 6,40 102,42 102,-4 -13,-50 -104,-23 -104,-87 0,-71 143,-71 148,-8 l -29,4 c -5,-35 -85,-37 -89,0"
         id="af" />
      <g
         id="i">
        <use
           transform="scale(0.05)"
           xlink:href="#Z"
           id="use246" />
        <use
           transform="matrix(0.05,0,0,0.05,9.3,0)"
           xlink:href="#aa"
           id="use248" />
        <use
           transform="matrix(0.05,0,0,0.05,19.3,0)"
           xlink:href="#ab"
           id="use250" />
        <use
           transform="matrix(0.05,0,0,0.05,29.3,0)"
           xlink:href="#ac"
           id="use252" />
        <use
           transform="matrix(0.05,0,0,0.05,38.3,0)"
           xlink:href="#ad"
           id="use254" />
        <use
           transform="matrix(0.05,0,0,0.05,48.3,0)"
           xlink:href="#aa"
           id="use256" />
        <use
           transform="matrix(0.05,0,0,0.05,58.3,0)"
           xlink:href="#ae"
           id="use258" />
        <use
           transform="matrix(0.05,0,0,0.05,64.25,0)"
           xlink:href="#af"
           id="use260" />
      </g>
      <path
         fill="#333333"
         d="M 14,0 62,-248 H 96 L 48,0 H 14"
         id="ag" />
      <path
         fill="#333333"
         d="M 133,-28 C 103,26 -5,8 13,-77 c 13,-62 24,-115 90,-117 29,-1 46,15 56,35 l 19,-102 h 32 L 160,0 H 130 Z M 45,-64 c -2,27 10,43 35,43 54,-1 69,-50 69,-103 0,-29 -15,-46 -42,-46 -53,-1 -58,58 -62,106"
         id="ah" />
      <g
         id="j">
        <use
           transform="scale(0.05)"
           xlink:href="#ag"
           id="use265" />
        <use
           transform="matrix(0.05,0,0,0.05,5,0)"
           xlink:href="#ah"
           id="use267" />
      </g>
      <path
         fill="#333333"
         d="m 17,-49 c 1,-102 45,-165 103,-212 h 30 C 92,-210 49,-145 49,-46 49,4 63,43 85,75 H 54 C 30,43 18,2 17,-49"
         id="ai" />
      <path
         fill="#333333"
         d="m 238,-179 c 0,84 -86,86 -175,82 L 45,0 H 11 l 48,-248 c 82,0 179,-12 179,69 z m -34,1 c 0,-53 -64,-42 -116,-43 l -19,98 c 63,0 135,9 135,-55"
         id="aj" />
      <path
         fill="#333333"
         d="m 87,-220 -18,92 h 140 l -5,28 H 64 L 45,0 H 11 l 48,-248 h 178 l -5,28 H 87"
         id="ak" />
      <path
         fill="#333333"
         d="M 180,0 97,-118 63,-96 45,0 H 11 l 48,-248 h 34 l -24,122 c 44,-43 94,-81 141,-122 h 43 L 121,-137 219,0 h -39"
         id="al" />
      <path
         fill="#333333"
         d="M 98,-137 C 97,-35 54,29 -4,75 H -35 C 23,23 67,-41 67,-140 67,-190 52,-229 30,-261 h 31 c 24,32 36,73 37,124"
         id="am" />
      <g
         id="k">
        <use
           transform="scale(0.05)"
           xlink:href="#ai"
           id="use275" />
        <use
           transform="matrix(0.05,0,0,0.05,5.95,0)"
           xlink:href="#aj"
           id="use277" />
        <use
           transform="matrix(0.05,0,0,0.05,17.95,0)"
           xlink:href="#ak"
           id="use279" />
        <use
           transform="matrix(0.05,0,0,0.05,28.9,0)"
           xlink:href="#al"
           id="use281" />
        <use
           transform="matrix(0.05,0,0,0.05,40.9,0)"
           xlink:href="#am"
           id="use283" />
      </g>
      <path
         fill="#333333"
         d="M 194,-120 C 253,-68 196,14 108,4 55,-2 18,-14 10,-59 l 31,-7 c 8,30 29,43 70,43 46,0 84,-17 71,-62 -32,-43 -135,-20 -137,-98 -3,-89 178,-90 191,-16 l -30,9 c -8,-48 -127,-53 -127,5 0,53 81,35 115,65"
         id="an" />
      <path
         fill="#333333"
         d="m 51,-54 c -9,22 5,41 31,30 L 79,-1 C 43,14 10,-4 19,-52 L 41,-167 H 19 l 5,-23 h 22 l 19,-43 h 21 l -9,43 h 35 l -4,23 H 73"
         id="ao" />
      <path
         fill="#333333"
         d="m 50,-231 6,-30 h 32 l -6,30 z M 6,0 43,-190 H 74 L 37,0 H 6"
         id="ap" />
      <path
         fill="#333333"
         d="m 67,-158 c 22,-48 132,-52 116,29 L 158,0 h -32 l 25,-140 c 3,-38 -53,-32 -70,-12 C 52,-117 51,-52 38,0 H 6 l 36,-190 h 30"
         id="aq" />
      <path
         fill="#333333"
         d="m 103,-194 c 29,0 47,14 56,36 2,-11 5,-23 8,-32 h 30 L 160,-5 C 157,61 82,97 21,62 9,55 4,45 1,30 l 28,-7 c 7,42 83,31 92,-3 4,-16 9,-38 13,-55 C 121,-15 105,1 72,1 32,1 12,-24 12,-63 c 0,-71 23,-131 91,-131 z m 4,24 c -53,0 -58,54 -61,104 -2,27 10,44 36,44 49,0 65,-50 67,-102 1,-29 -15,-46 -42,-46"
         id="ar" />
      <g
         id="l">
        <use
           transform="scale(0.05)"
           xlink:href="#an"
           id="use291" />
        <use
           transform="matrix(0.05,0,0,0.05,12,0)"
           xlink:href="#ao"
           id="use293" />
        <use
           transform="matrix(0.05,0,0,0.05,17,0)"
           xlink:href="#ae"
           id="use295" />
        <use
           transform="matrix(0.05,0,0,0.05,22.95,0)"
           xlink:href="#ap"
           id="use297" />
        <use
           transform="matrix(0.05,0,0,0.05,26.9,0)"
           xlink:href="#aq"
           id="use299" />
        <use
           transform="matrix(0.05,0,0,0.05,36.9,0)"
           xlink:href="#ar"
           id="use301" />
      </g>
      <path
         fill="#333333"
         d="M 173,0 80,-213 41,0 H 11 l 48,-248 h 37 l 94,214 40,-214 h 30 L 212,0 h -39"
         id="as" />
      <path
         fill="#333333"
         d="m 248,-111 c 6,-24 9,-61 -24,-58 -72,9 -57,108 -77,169 h -31 l 26,-142 c 3,-37 -50,-30 -64,-10 C 52,-115 50,-51 37,0 H 6 l 36,-190 h 30 c -1,10 -6,24 -4,32 13,-43 101,-52 105,5 13,-22 29,-41 61,-41 90,0 28,129 23,194 h -31"
         id="at" />
      <g
         id="m">
        <use
           transform="scale(0.05)"
           xlink:href="#as"
           id="use306" />
        <use
           transform="matrix(0.05,0,0,0.05,12.95,0)"
           xlink:href="#ab"
           id="use308" />
        <use
           transform="matrix(0.05,0,0,0.05,22.95,0)"
           xlink:href="#at"
           id="use310" />
        <use
           transform="matrix(0.05,0,0,0.05,37.9,0)"
           xlink:href="#aa"
           id="use312" />
      </g>
      <path
         fill="#333333"
         d="M 67,3 C -26,1 36,-124 41,-190 H 73 L 48,-50 c -3,39 53,32 70,12 30,-34 30,-101 43,-152 h 32 L 157,0 h -30 c 1,-10 6,-24 4,-33 -14,20 -29,37 -64,36"
         id="au" />
      <g
         id="n">
        <use
           transform="scale(0.05)"
           xlink:href="#an"
           id="use316" />
        <use
           transform="matrix(0.05,0,0,0.05,12,0)"
           xlink:href="#ao"
           id="use318" />
        <use
           transform="matrix(0.05,0,0,0.05,17,0)"
           xlink:href="#au"
           id="use320" />
        <use
           transform="matrix(0.05,0,0,0.05,27,0)"
           xlink:href="#ah"
           id="use322" />
        <use
           transform="matrix(0.05,0,0,0.05,37,0)"
           xlink:href="#aa"
           id="use324" />
        <use
           transform="matrix(0.05,0,0,0.05,47,0)"
           xlink:href="#aq"
           id="use326" />
        <use
           transform="matrix(0.05,0,0,0.05,57,0)"
           xlink:href="#ao"
           id="use328" />
        <use
           transform="matrix(0.05,0,0,0.05,62,0)"
           xlink:href="#af"
           id="use330" />
      </g>
      <g
         id="o">
        <use
           transform="scale(0.05)"
           xlink:href="#as"
           id="use333" />
        <use
           transform="matrix(0.05,0,0,0.05,12.95,0)"
           xlink:href="#ab"
           id="use335" />
        <use
           transform="matrix(0.05,0,0,0.05,22.95,0)"
           xlink:href="#at"
           id="use337" />
        <use
           transform="matrix(0.05,0,0,0.05,37.9,0)"
           xlink:href="#aa"
           id="use339" />
      </g>
      <path
         fill="#333333"
         d="m 125,-24 c 46,0 70,-25 89,-51 l 25,16 C 214,-24 183,4 123,4 8,4 -5,-146 60,-208 c 32,-50 158,-61 191,-5 5,7 9,14 11,22 l -32,10 c -9,-28 -33,-43 -69,-43 -74,0 -108,51 -108,125 0,46 24,75 72,75"
         id="av" />
      <path
         fill="#333333"
         d="M 6,0 56,-261 H 88 L 37,0 H 6"
         id="aw" />
      <g
         id="p">
        <use
           transform="scale(0.05)"
           xlink:href="#av"
           id="use344" />
        <use
           transform="matrix(0.05,0,0,0.05,12.95,0)"
           xlink:href="#aw"
           id="use346" />
        <use
           transform="matrix(0.05,0,0,0.05,16.9,0)"
           xlink:href="#ab"
           id="use348" />
        <use
           transform="matrix(0.05,0,0,0.05,26.9,0)"
           xlink:href="#af"
           id="use350" />
        <use
           transform="matrix(0.05,0,0,0.05,35.9,0)"
           xlink:href="#af"
           id="use352" />
        <use
           transform="matrix(0.05,0,0,0.05,44.9,0)"
           xlink:href="#aa"
           id="use354" />
        <use
           transform="matrix(0.05,0,0,0.05,54.9,0)"
           xlink:href="#af"
           id="use356" />
      </g>
      <g
         id="q">
        <use
           transform="scale(0.05)"
           xlink:href="#Z"
           id="use359" />
        <use
           transform="matrix(0.05,0,0,0.05,9.3,0)"
           xlink:href="#aa"
           id="use361" />
        <use
           transform="matrix(0.05,0,0,0.05,19.3,0)"
           xlink:href="#ab"
           id="use363" />
        <use
           transform="matrix(0.05,0,0,0.05,29.3,0)"
           xlink:href="#ac"
           id="use365" />
        <use
           transform="matrix(0.05,0,0,0.05,38.3,0)"
           xlink:href="#ad"
           id="use367" />
        <use
           transform="matrix(0.05,0,0,0.05,48.3,0)"
           xlink:href="#aa"
           id="use369" />
        <use
           transform="matrix(0.05,0,0,0.05,58.3,0)"
           xlink:href="#ae"
           id="use371" />
        <use
           transform="matrix(0.05,0,0,0.05,64.25,0)"
           xlink:href="#ag"
           id="use373" />
        <use
           transform="matrix(0.05,0,0,0.05,69.25,0)"
           xlink:href="#ah"
           id="use375" />
      </g>
      <g
         id="r">
        <use
           transform="scale(0.05)"
           xlink:href="#ai"
           id="use378" />
        <use
           transform="matrix(0.05,0,0,0.05,5.95,0)"
           xlink:href="#ak"
           id="use380" />
        <use
           transform="matrix(0.05,0,0,0.05,16.9,0)"
           xlink:href="#al"
           id="use382" />
        <use
           transform="matrix(0.05,0,0,0.05,28.9,0)"
           xlink:href="#am"
           id="use384" />
      </g>
      <g
         id="s">
        <use
           transform="scale(0.05)"
           xlink:href="#an"
           id="use387" />
        <use
           transform="matrix(0.05,0,0,0.05,12,0)"
           xlink:href="#ao"
           id="use389" />
        <use
           transform="matrix(0.05,0,0,0.05,17,0)"
           xlink:href="#au"
           id="use391" />
        <use
           transform="matrix(0.05,0,0,0.05,27,0)"
           xlink:href="#ah"
           id="use393" />
        <use
           transform="matrix(0.05,0,0,0.05,37,0)"
           xlink:href="#aa"
           id="use395" />
        <use
           transform="matrix(0.05,0,0,0.05,47,0)"
           xlink:href="#aq"
           id="use397" />
        <use
           transform="matrix(0.05,0,0,0.05,57,0)"
           xlink:href="#ao"
           id="use399" />
        <use
           transform="matrix(0.05,0,0,0.05,62,0)"
           xlink:href="#af"
           id="use401" />
      </g>
      <g
         id="t">
        <use
           transform="scale(0.05)"
           xlink:href="#av"
           id="use404" />
        <use
           transform="matrix(0.05,0,0,0.05,12.95,0)"
           xlink:href="#aw"
           id="use406" />
        <use
           transform="matrix(0.05,0,0,0.05,16.9,0)"
           xlink:href="#ab"
           id="use408" />
        <use
           transform="matrix(0.05,0,0,0.05,26.9,0)"
           xlink:href="#af"
           id="use410" />
        <use
           transform="matrix(0.05,0,0,0.05,35.9,0)"
           xlink:href="#af"
           id="use412" />
      </g>
      <g
         id="u">
        <use
           transform="scale(0.05)"
           xlink:href="#an"
           id="use415" />
        <use
           transform="matrix(0.05,0,0,0.05,12,0)"
           xlink:href="#ao"
           id="use417" />
        <use
           transform="matrix(0.05,0,0,0.05,17,0)"
           xlink:href="#au"
           id="use419" />
        <use
           transform="matrix(0.05,0,0,0.05,27,0)"
           xlink:href="#ah"
           id="use421" />
        <use
           transform="matrix(0.05,0,0,0.05,37,0)"
           xlink:href="#aa"
           id="use423" />
        <use
           transform="matrix(0.05,0,0,0.05,47,0)"
           xlink:href="#aq"
           id="use425" />
        <use
           transform="matrix(0.05,0,0,0.05,57,0)"
           xlink:href="#ao"
           id="use427" />
        <use
           transform="matrix(0.05,0,0,0.05,62,0)"
           xlink:href="#ag"
           id="use429" />
        <use
           transform="matrix(0.05,0,0,0.05,67,0)"
           xlink:href="#ah"
           id="use431" />
      </g>
      <g
         id="v">
        <use
           transform="scale(0.05)"
           xlink:href="#av"
           id="use434" />
        <use
           transform="matrix(0.05,0,0,0.05,12.95,0)"
           xlink:href="#aw"
           id="use436" />
        <use
           transform="matrix(0.05,0,0,0.05,16.9,0)"
           xlink:href="#ab"
           id="use438" />
        <use
           transform="matrix(0.05,0,0,0.05,26.9,0)"
           xlink:href="#af"
           id="use440" />
        <use
           transform="matrix(0.05,0,0,0.05,35.9,0)"
           xlink:href="#af"
           id="use442" />
        <use
           transform="matrix(0.05,0,0,0.05,44.9,0)"
           xlink:href="#ag"
           id="use444" />
        <use
           transform="matrix(0.05,0,0,0.05,49.9,0)"
           xlink:href="#ah"
           id="use446" />
      </g>
    </defs>
  </g>
</svg>
